<svg xmlns="http://www.w3.org/2000/svg" viewBox="0 0 100 100" fill="#fff"><path d="M64 36v2l-1-1v-1h-1v1h-1v-2h1l-1-1h1l2 2zm-9-6h-1l1 1 1 1 2-1-1-1h-2zm-12 9l2 1-1-2h-1l-1 1h1zM33 51h-1l2 1h1l-2-1zm2 2h2v-1h-1l-1 1zm-2 1l1-1h-1v1zm45-4c0 15.4-12.6 28-28 28S22 65.4 22 50s12.6-28 28-28 28 12.6 28 28zM68 33v2l-1 1h1l1-1v-1l-1-1-1-2h-1l1 2h1zm5 9h1.7c-.1-.3-.2-.7-.3-1H74l-1-1v2zM43 75l-2-3-2-5-2-1-3-3-1-2 1-2v-2l-1 1-2-1-1-2h-1l-1-1h-1l-2-2v-1l-1-1.5v.5c0 11.9 8.1 22 19 25zm7 1c5.2 0 10-1.5 14-4.1V71l2-3v-1l1-2h1v-3l-1-1 1-2-1-1-2 1h-2l-2-1-1-2-1-1v-1l1-1v-2l1-3h1l1-2 1-1h2l1-1h2l1 2 1 1h1l1-1 1 1h1l-1-2h-1l-1-2-1 2-1-1 1-1-3-2h-2l1 1h-1v2h-1l-1 1v-1h-2v-2l1-1h2v-1l-1-1-1-1h1l1-2h1v-2h-1l-1-2 1-1-1-2 .3-.7c-3.1-2.1-6.7-3.5-10.6-4.1l-.7.8 2 1-1 1v2l-2 1h-2l-1 2-1 1-2-1-1-3 1-2-1-1h-2v-1c-.5.1-1 .3-1.4.4l-.6.6h-1c-1.3.6-2.6 1.2-3.8 2h.8l1-1h3l1 1-1 1h1l1 1-1 1-1 1h-1l-1-1h-1l2-1-1-1-2 1v1h-2l-3 2v1l1 1h1v2h1v-1l2-2-1-1 1-1h2v1l1 1 1-1 1 2 2 1-1 2v-1l-1 1h-2l-1 1h1l1 1-3 1h-1v1l-2 1-1 2-2 2 1 2-1 1-1-1-1-1h-2l-1 2v2l1 1 1-1 2-1-1 1v2h1v1l1 2h1l1-1 2-1 1 1h3l2 2h2l2 2 3 1 2 1 1 2-2 1v3l-2 1h-1v2l-2 2v1l-1 1 .4.4c1.8.4 3.7.6 5.6.6z"/></svg>
