<svg xmlns="http://www.w3.org/2000/svg" viewBox="0 0 90 90" fill="#fff"><path d="M11.956 12.089c-13.038 13.038-13.038 34.178 0 47.215 13.039 13.038 34.178 13.039 47.217.001 13.037-13.037 13.037-34.179-.001-47.217C46.134-.95 24.994-.949 11.956 12.089zm42.666 42.665c-10.525 10.525-27.59 10.525-38.115 0-10.525-10.525-10.525-27.589 0-38.114 10.524-10.525 27.59-10.525 38.115 0 10.524 10.524 10.524 27.59 0 38.114zm8.9 3.284a35.068 35.068 0 0 1-2.645 2.973c-.95.95-1.946 1.827-2.973 2.645l11.54 16.664s7.548 9.161 15.296 8.598l.283.283.349-.348 3.35-3.351.347-.348-.283-.283c.562-7.748-8.599-15.296-8.599-15.296L63.522 58.038z"/><path d="M57.771 42.484a28.977 28.977 0 0 1-.746 4.178 24.024 24.024 0 0 0 3.043-9.458c1.37-13.259-8.268-25.118-21.526-26.488-2.04-.211-4.038-.132-5.978.151 15.578 1.905 26.828 15.939 25.207 31.617z"/><path d="M29.622 23.134c1.518-.978 3.383-1.466 5.595-1.466 2.906 0 5.321.694 7.244 2.083 1.923 1.389 2.884 3.447 2.884 6.173 0 1.672-.417 3.08-1.251 4.225-.487.694-1.424 1.582-2.808 2.662l-1.367 1.061c-.744.579-1.238 1.254-1.48 2.025-.154.489-.238 1.248-.251 2.276H32.96c.077-2.173.283-3.675.616-4.504.333-.83 1.193-1.784 2.577-2.865l1.405-1.1a4.926 4.926 0 0 0 1.115-1.138 3.899 3.899 0 0 0 .769-2.334 4.51 4.51 0 0 0-.857-2.672c-.57-.804-1.612-1.206-3.126-1.206-1.489 0-2.543.495-3.167 1.485-.621.99-.933 2.019-.933 3.086h-5.575c.154-3.663 1.433-6.261 3.838-7.791zm3.203 21.683h5.768v5.576h-5.768v-5.576z"/></svg>
