<svg xmlns="http://www.w3.org/2000/svg" width="603" height="466.918" fill="#fff" viewBox="4.496 162.541 603 466.918"><path d="M379.195 298.374l-119.884-103.3-69.762 86.219 119.866 103.293zM174.5 287.033l87.614-108.256c3.03-3.733 1.989-9.774-2.307-13.477-4.302-3.696-10.227-3.684-13.256.067l-87.626 108.238c-3.03 3.74-1.989 9.78 2.313 13.489 4.296 3.703 10.232 3.673 13.262-.061zM394.152 292.566l-87.62 108.25c-3.023 3.728-1.982 9.755 2.295 13.464 4.297 3.715 10.239 3.685 13.263-.049l87.626-108.257c3.017-3.739 1.995-9.773-2.313-13.476-4.303-3.702-10.24-3.671-13.251.068zM235.039 332.891l-54.371 67.161 17.057 14.712 54.37-67.18zM190.693 423.436l3.329-4.1-17.215-14.823-3.336 4.1zM154.457 422.182L8.317 585.524c-5.826 7.197-4.877 17.889 2.081 23.886l18.678 16.108c6.977 5.997 17.344 5.049 23.164-2.16l129.708-177.486c5.838-7.191 4.902-17.889-2.081-23.898l-2.246-1.935c-6.977-6.021-17.35-5.043-23.164 2.143z"/><g><path d="M363.645 570.609c-70.038-16.83-140.509-32.968-210.963-49.137l9.645-13.415c58.911 13.519 118.196 27.233 177.542 41.01 4.854 1.126 13.923 4.32 16.781 3.702 3.249-.673 11.321-8.837 15.643-12.552 73.722-63.574 149.664-127.376 223.569-190.559 1.892-1.089-.343-4.926-.422-7.325 3.316 1.732 7.344 2.319 10.337 4.565 1.285 4.162.605 6.989 1.72 11.022L363.645 570.609zM157.468 399.77c.061-.036.146-.049.208-.061l1.53-1.928 3.287-4.113 11.971-15.006.153.135 39.462-49.536-24.817-21.053c-3.776 2.833-7.54 5.716-11.322 8.55-6.365 4.761-12.638 9.682-18.978 14.461-35.282 26.659-70.111 53.636-104.873 80.637-8.978 22.296-2.215 61.494 13.335 82.352l10.313-11.72c-11.983-18.379-17.1-51.727-6.965-67.461 18.813 3.758 37.632 7.527 56.427 11.328l13.439-15.264c4.443-5.409 10.244-9.326 16.83-11.321z"/><path d="M220.908 418.051l-11.977 15.018-.478.606-3.415 4.284a36.268 36.268 0 0 1-.349 3.929c42.846 8.556 85.735 17.068 128.759 25.361 83.954-68.018 168.631-135.54 252.327-203.723-28.458-8.562-56.499-17.766-84.982-26.316-29.388-9.063-59.144-17.326-88.213-27.375-11.212-3.874-24.511-8.317-36.396-8.287-14.939.018-30.398 2.203-44.805 6.396-6.781 1.952-13.36 4.847-19.743 8.335l70.882 60.129c2.717-2.326 5.869-4.137 9.345-5.202 9.156-2.809 19.192-.582 26.91 5.955 12.338 10.465 14.577 28.782 4.981 40.814l-86.788 108.949a26.2 26.2 0 0 1-12.876 8.8c-9.138 2.804-19.192.582-26.904-5.967-10.967-9.309-13.923-24.792-7.742-36.573l-29.082-24.669-39.454 49.536zM74.835 434.587c10.085 3.88 21.157 4.736 31.75 7.172 1.952.441 3.923.882 5.887 1.316l3.079-3.488a8700.51 8700.51 0 0 1-32.632-7.063c-2.741-.606-6.058-3.121-8.084 2.063zM333.283 485.572c-44.199-9.822-89.31-19.168-134.334-28.513a35.223 35.223 0 0 1-1.523 2.209l-1.518 2.087c43.342 9.174 86.708 18.011 129.322 26.952 2.644.569 6.248 2.729 8.103-2.056.158-.257.305-.501-.05-.679zM336.141 507.978c.178-.251.318-.508-.036-.68-49.511-10.343-99.873-21.432-149.983-32.325l-3.017 4.198c48.525 10.429 97.375 20.655 144.964 30.882 2.613.562 6.248 2.692 8.072-2.075zM79.187 456.142c6.01 1.389 12.081 2.741 18.134 4.124l3.225-3.647c-4.535-.936-9.101-1.934-13.623-2.857-2.742-.571-6.053-1.936-7.736 2.38zM170.662 496.484c54.376 12.381 109.45 24.565 163.092 36.433 2.645.581 6.193 2.809 8.104-1.978.165-.244.324-.477-.031-.667-55.435-11.915-111.971-25.337-168.073-38.115l-3.092 4.327z"/></g></svg>
