<svg xmlns="http://www.w3.org/2000/svg" viewBox="0 -90 792 792" fill="#fff"><path d="M202.455 546.645h81.237V152.333h-81.237v394.312zm81.249-446.173c0-3.366-2.754-6.12-6.12-6.12h-69.009c-3.366 0-6.12 2.754-6.12 6.12v45.869h81.249v-45.869zM202.455 598.45c0 3.36 2.754 6.12 6.12 6.12h69.009c3.366 0 6.12-2.76 6.12-6.12v-45.869h-81.249v45.869zm373.038-84.241l97.902-18.299-57.749-309.023-97.907 18.299 57.754 309.023zm22.681-420.873a6.145 6.145 0 0 0-7.147-4.89l-85.876 16.053a6.144 6.144 0 0 0-4.902 7.136l16.39 87.657 97.914-18.298-16.379-87.658zm-6.438 507.801c.617 3.312 3.824 5.508 7.136 4.902l85.894-16.071c3.306-.618 5.509-3.837 4.896-7.136l-15.159-81.103-97.926 18.312 15.159 81.096zM387.842 123.349H304.2c-3.366 0-6.12 2.754-6.12 6.12V598.45c0 3.36 2.754 6.12 6.12 6.12h83.642c3.366 0 6.12-2.76 6.12-6.12V129.469c0-3.366-2.754-6.12-6.12-6.12zM380.957 443.7h-69.872V302.94h69.872V443.7zM99.951 510.438h84.903v-384.09H99.951v384.09zM184.86 46.31c0-3.366-2.754-6.12-6.12-6.12h-72.675c-3.366 0-6.12 2.754-6.12 6.12v74.04h84.915V46.31zM99.945 598.45c0 3.36 2.754 6.12 6.12 6.12h72.675c3.366 0 6.12-2.76 6.12-6.12v-82.075H99.945v82.075zm324.133-87.02l84.787-4.382-19.823-383.583-84.786 4.382 19.822 383.583zm60.84-467.886a6.146 6.146 0 0 0-6.427-5.802L405.914 41.5a6.132 6.132 0 0 0-5.795 6.426l3.818 73.942 84.799-4.382-3.818-73.942zm-56.305 555.788c.172 3.354 3.072 5.967 6.433 5.795l72.577-3.751c3.359-.178 5.967-3.072 5.789-6.427l-4.235-81.971-84.798 4.382 4.234 81.972z"/></svg>
