<svg xmlns="http://www.w3.org/2000/svg" viewBox="-949 951 100 100" fill="#002087"><switch><g><path d="M-850.1 1038.9l-14.5-44.1c-.2-.6-.6-1.1-1.2-1.4l-4.5-2c-.7 1.4-1.5 2.8-2.1 4.1l3.7 1.7 12.8 38.9-17.7-5.5-4.5-27.2c-.8.3-1.7.5-2.6.5-.7 0-1.4-.1-2-.3l4.5 27.1-18.5 5.7v-39.5l6.9-3.1-2.1-4.1-7.1 3.2-15.1-6.8c-.6-.3-1.3-.3-1.9 0l-16.1 7.3c-.6.3-1 .8-1.2 1.4l-14.5 44.1c-.3.8-.1 1.7.5 2.3.6.6 1.5.8 2.3.6l22.7-7 22.7 7c.4.1.9.1 1.4 0l22.7-7 22.7 7c.2.1.5.1.7.1.6 0 1.2-.2 1.6-.7.4-.6.7-1.5.4-2.3zm-74.2-8.3l-17.8 5.5 12.8-38.9 11.3-5.1-6.3 38.5zm23 5.9l-18.4-5.7 6.4-39.2 12 5.4v39.5z"/><path d="M-882.4 998.3c.7 1.4 2.7 1.4 3.4 0 0 0 8.1-15.7 9.9-19.4 1.8-3.7 1.9-7.9 0-11.7-3.2-6.4-11-9-17.5-5.8-6.4 3.2-8.9 11.3-5.8 17.5 3.2 6.2 10 19.4 10 19.4zm1.7-32c3.7 0 6.8 3 6.8 6.8 0 3.7-3 6.8-6.8 6.8s-6.8-3-6.8-6.8c.1-3.8 3.1-6.8 6.8-6.8z"/><path d="M-880.7 977.7c2.6 0 4.6-2.1 4.6-4.6 0-2.6-2.1-4.6-4.6-4.6-2.6 0-4.6 2.1-4.6 4.6 0 2.5 2.1 4.6 4.6 4.6z"/></g></switch></svg>
