<svg xmlns="http://www.w3.org/2000/svg" viewBox="0 0 100 100" fill="#002087"><path d="M78.9 24.3L60.4 5.5H18.9v89h60v-6.8h11V52.6h-11V24.3zM58.4 7.7l18.5 18.6H58.4V7.7zm28.5 47.9v29.1H30.4V55.6h56.5z"/><path d="M42.5 72.9h1.6c.7 0 1.4-.1 2.1-.3.7-.2 1.3-.5 1.8-.9s1-.9 1.3-1.6.5-1.4.5-2.3c0-1-.2-1.9-.6-2.5-.4-.6-.9-1.1-1.4-1.5-.6-.4-1.2-.6-2-.7-.7-.1-1.5-.2-2.2-.2-.7 0-1.4 0-2.1.1-.7.1-1.4.2-1.9.3v14.6h2.9v-5zm0-7.3c.2 0 .4-.1.6-.1h.8c.4 0 .7 0 1.1.1.3.1.7.2.9.4.3.2.5.4.7.7.2.3.3.7.3 1.1 0 .5-.1 1-.3 1.3-.2.3-.4.6-.7.8-.3.2-.6.3-1 .4-.4.1-.7.1-1.1.1h-1.4v-4.8zm13.1 12.5c.4 0 .7 0 1.1.1h.9c1.4 0 2.6-.2 3.5-.7.9-.4 1.6-1 2.1-1.7s.9-1.5 1.1-2.5c.2-.9.3-1.9.3-2.8 0-1.1-.1-2-.3-3-.2-.9-.5-1.7-1-2.4s-1.2-1.2-2-1.6c-.9-.4-1.9-.6-3.2-.6H57c-.4 0-.8 0-1.2.1-.4 0-.8 0-1.1.1-.3 0-.5 0-.7.1V78c.2 0 .4.1.8.1h.8zm1.1-12.4c.1 0 .3 0 .6-.1s.5 0 .8 0c.8 0 1.4.2 1.9.5s.8.7 1 1.2c.2.5.4 1 .4 1.6s.1 1.1.1 1.7c0 .6 0 1.2-.1 1.8-.1.6-.2 1.2-.5 1.7-.2.5-.6.9-1.1 1.2-.5.3-1.1.5-1.9.5h-1.2V65.7zM72.1 72h6v-2.6h-6v-3.6h6.4v-2.6h-9.3v14.7h2.9z"/></svg>
