<svg xmlns="http://www.w3.org/2000/svg" fill="#002087" width="447.045" height="476.635" viewBox="272.188 45.938 447.045 476.635"><path d="M593.693 479.063H314.152c-11.541 0-20.09-8.433-20.09-19.974V88.108c0-11.543 8.549-20.295 20.09-20.295h209.742c7.921 2.188 12.98 8.8 12.98 17.406v44.641c0 11.983 10.476 21.077 22.455 21.077h36.743c9.491 0 17.362 7.693 19.55 16.85v24.33a160.015 160.015 0 0 1 19.688 21.352v-59.793c0-11.48-4.104-22.36-12.06-30.636l-60.879-63.466c-8.327-8.665-19.862-13.635-31.885-13.635H314.152c-23.255 0-41.965 18.915-41.965 42.17v370.978c0 23.258 18.709 41.852 41.965 41.852h279.541c12.792 0 24.08-5.646 31.67-14.58l-14.664-14.665c-4.119 4.567-10.365 7.369-17.006 7.369z"/><path d="M712.831 485.26l-91.663-91.661c17.553-23.343 27.968-52.364 27.968-83.82 0-77.101-62.504-139.604-139.606-139.604-77.101 0-139.602 62.503-139.602 139.604S432.429 449.38 509.529 449.38c29.863 0 57.518-9.408 80.222-25.381l92.171 92.17a21.788 21.788 0 0 0 15.454 6.403 21.79 21.79 0 0 0 15.455-6.403c8.535-8.533 8.535-22.374 0-30.909zm-203.302-72.352c-56.954 0-103.132-46.174-103.132-103.132s46.176-103.132 103.132-103.132c56.958 0 103.134 46.174 103.134 103.132s-46.176 103.132-103.134 103.132z"/><path d="M451.563 264.688v17.5h138.622c-2.103-6.563-4.887-10.938-8.28-17.5H451.563zM451.563 321.563h142.221c.616-2.188.942-8.365.942-12.672 0-1.621-.055-2.641-.145-4.828H451.563v17.5zM451.563 363.125h124.816c4.23-6.563 7.831-10.938 10.692-17.5H451.563v17.5z"/></svg>
