<svg xmlns="http://www.w3.org/2000/svg" viewBox="0 0 100 100" fill="#002087"><path d="M30.482 65.647h39.036c.596 0 1.084-.488 1.084-1.084a1.08 1.08 0 0 0-1.084-1.084H30.482a1.08 1.08 0 0 0-1.084 1.084c0 .596.488 1.084 1.084 1.084zm0 6.864h39.036c.596 0 1.084-.488 1.084-1.084a1.08 1.08 0 0 0-1.084-1.084H30.482a1.08 1.08 0 0 0-1.084 1.084c0 .596.488 1.084 1.084 1.084zm0 6.864h39.036c.596 0 1.084-.488 1.084-1.084 0-.596-.488-1.084-1.084-1.084H30.482c-.596 0-1.084.488-1.084 1.084 0 .596.488 1.084 1.084 1.084zm0 6.864h39.036c.596 0 1.084-.488 1.084-1.084 0-.596-.488-1.084-1.084-1.084H30.482c-.596 0-1.084.488-1.084 1.084 0 .596.488 1.084 1.084 1.084z"/><path d="M86.087 31.154h-9.444V18.541h-.001a1.08 1.08 0 0 0-.317-.763L65.787 7.241a1.077 1.077 0 0 0-.791-.313H23.357v24.226h-9.444C9.001 31.154 5 35.155 5 40.067v27.499c0 4.923 4.001 8.913 8.913 8.913h5.14c.9 0 1.627-.727 1.627-1.626v-4.804h2.678V93.07h53.284V70.049h2.678v4.804c0 .9.727 1.626 1.627 1.626h5.14c4.912 0 8.913-3.99 8.913-8.913V40.067c0-4.912-4.001-8.913-8.913-8.913zM66.102 10.622l6.835 6.835h-6.835v-6.835zM25.526 9.097h38.407v10.529h10.541v11.528H25.526V9.097zm48.948 81.804H25.526V58.805h48.947v32.096zm9.603-37.898a2.842 2.842 0 1 1 0-5.684 2.842 2.842 0 0 1 0 5.684zm0-7.401a2.841 2.841 0 1 1-.001-5.683 2.841 2.841 0 0 1 .001 5.683z"/></svg>
