<svg xmlns="http://www.w3.org/2000/svg" fill="#002087" data-name="Layer 1" viewBox="0 0 100 100"><title>icon base_1</title><path d="M3.78 37a33.24 33.24 0 0 0 53.59 26.31l6.39 6.39-.65.65a2.27 2.27 0 0 0 0 3.22l20.51 20.49a7.38 7.38 0 0 0 10.44-10.45L73.57 63.12a2.28 2.28 0 0 0-3.22 0l-.65.65-6.39-6.39a33.24 33.24 0 0 0-49.79-43.86A33 33 0 0 0 3.78 37zm4.55 0a28.7 28.7 0 0 1 49-20.29 28.7 28.7 0 1 1-40.6 40.61A28.51 28.51 0 0 1 8.33 37zM38 12.12a32.13 32.13 0 0 1 11.27 4.21A23.17 23.17 0 0 1 60.75 37a2.27 2.27 0 0 1-4.55 0c0-17.54-18-20.29-18.82-20.4a2.27 2.27 0 0 1 .62-4.48z"/></svg>
